/vscmnt/brussel_pixiu_data/_data_brussel/112/vsc11236/PredSimResults/SUBJ06_gait1422_tracking/SUBJ06_gait1422_11448691.mot
version=1
nRows=4
nColumns=50
inDegrees=yes
endheader
                time	         pelvis_tilt	         pelvis_list	     pelvis_rotation	           pelvis_tx	           pelvis_ty	           pelvis_tz	       hip_flexion_r	     hip_adduction_r	      hip_rotation_r	        knee_angle_r	       ankle_angle_r	         mtp_angle_r	       hip_flexion_l	     hip_adduction_l	      hip_rotation_l	        knee_angle_l	       ankle_angle_l	         mtp_angle_l	    lumbar_extension	      lumbar_bending	     lumbar_rotation	 ercspn_r/activation	 intobl_r/activation	 extobl_r/activation	    abd_r/activation	    add_r/activation	hamstrings_r/activation	bifemsh_r/activation	glut_max_r/activation	iliopsoas_r/activation	rect_fem_r/activation	  vasti_r/activation	gastroc_r/activation	 soleus_r/activation	tib_ant_r/activation	 ercspn_l/activation	 intobl_l/activation	 extobl_l/activation	    abd_l/activation	    add_l/activation	hamstrings_l/activation	bifemsh_l/activation	glut_max_l/activation	iliopsoas_l/activation	rect_fem_l/activation	  vasti_l/activation	gastroc_l/activation	 soleus_l/activation	tib_ant_l/activation	
          0.00000000	         -0.37774426	          5.35985166	          1.08878684	          0.00000000	          0.94265172	         -0.04633082	         28.17961647	         -5.98839586	        -13.29571840	        -14.26115452	         -1.93385274	          0.14498349	        -12.52884263	          7.10687415	        -19.80635919	         -9.99370257	          8.94345488	         26.75012366	         -7.10557982	         -5.45020937	         -4.08887201	          0.04848441	          0.14223294	          0.07566173	          0.03620433	          0.01418846	          0.02271156	          0.26073773	          0.01690206	          0.25917424	          0.20485696	          0.04078908	          0.05653114	          0.01191121	          0.25097114	          0.01676157	          0.01001029	          0.08544631	          0.16874577	          0.01000237	          0.04311131	          0.36452466	          0.01000557	          0.43212974	          0.03107306	          0.01000073	          0.26828766	          0.57412664	          0.05377910	
          0.01146365	         -0.48421974	          5.12103409	          1.32242573	          0.01615226	          0.94299136	         -0.04524709	         27.25284818	         -5.66840539	        -13.08239514	        -14.42558842	         -1.64879355	          0.17562508	        -12.69247277	          6.41985420	        -19.93990750	        -11.20260117	          7.59373547	         29.33280964	         -6.63323229	         -5.06647740	         -4.12411081	          0.04070704	          0.24881662	          0.17933741	          0.03039689	          0.01191256	          0.01906840	          0.21891339	          0.01419089	          0.39248375	          0.37558935	          0.03890690	          0.04746298	          0.01000058	          0.22394351	          0.01407305	          0.01418879	          0.13696550	          0.14167760	          0.01000186	          0.03619931	          0.30605214	          0.01001837	          0.36281153	          0.02608915	          0.01004785	          0.24837389	          0.52326702	          0.04515228	
          0.02292731	         -0.60972461	          4.73846586	          1.46379811	          0.03206868	          0.94358085	         -0.04398724	         26.63128022	         -5.22819098	        -12.90995844	        -14.87053374	         -2.08335830	          0.18913687	        -12.70147140	          5.55296340	        -20.14995165	        -12.60131215	          6.18104178	         31.86286503	         -6.18813934	         -4.49585245	         -4.10037172	          0.03417729	          0.20890512	          0.15057261	          0.02917459	          0.01000187	          0.01600969	          0.18379810	          0.01191476	          0.35211231	          0.31534377	          0.04265229	          0.03984991	          0.01817025	          0.18824670	          0.01181576	          0.01191384	          0.11499513	          0.11895094	          0.01000102	          0.04913454	          0.25695975	          0.02855086	          0.30461425	          0.02190456	          0.01000914	          0.22163751	          0.46644719	          0.03790930	
          0.03439096	         -0.75559398	          4.21254366	          1.49336372	          0.04766347	          0.94435249	         -0.04254947	         26.36490249	         -4.67491574	        -12.74031434	        -15.76662951	         -2.78230846	          0.18795711	        -12.53629395	          4.50659073	        -20.44372760	        -14.22974170	          4.73254311	         34.29234993	         -5.78272721	         -3.73191768	         -4.00688336	          0.02869526	          0.17539440	          0.12641934	          0.03935393	          0.01000143	          0.01344183	          0.15431839	          0.01000422	          0.29562964	          0.26475906	          0.03581048	          0.03345817	          0.01525606	          0.16183934	          0.01000035	          0.01000374	          0.09654869	          0.09986982	          0.01000060	          0.06939520	          0.21574340	          0.02397179	          0.30646138	          0.01839123	          0.01205181	          0.19953517	          0.42096632	          0.03182820	
